<svg
width="40"
height="40"
viewBox="0 0 40 40" fill="none"
xmlns="http://www.w3.org/2000/svg"
>
<path d="M37.9961 9.32904L37.9766 9.34663L37.958 9.36523L29.5322 17.791C28.6077 18.7155 28.6077 20.2981 29.5322
21.2226L37.958 29.6484C38.1015 29.7919 38.1015 30.1081 37.958 30.2516L30.3036 37.906C30.1601 38.0495 29.8439
38.0495 29.7004 37.906L21.2746 29.4802C20.3501 28.5557 18.7675 28.5557 17.843 29.4802L9.41722 37.906C9.27372
38.0495 8.95751 38.0495 8.814 37.906L1.15963 30.2516C1.01613 30.1081 1.01613 29.7919 1.15963 29.6484L9.58537
21.2226C10.5099 20.2981 10.5099 18.7155 9.58537 17.791L1.15963 9.36523C1.01613 9.22173 1.01613 8.9055 1.15963
8.762L8.814 1.10763C8.95751 0.964124 9.27372 0.964125 9.41722 1.10763L17.843 9.53338C18.7675 10.4579 20.3501
10.4579 21.2746 9.53338L29.7004 1.10763C29.8439 0.964124 30.1601 0.964125 30.3036 1.10763L37.958 8.762C38.0751
8.87909 38.1101 8.99867 38.1101 9.08587C38.1101 9.16994 38.079 9.25442 37.9961 9.32904Z"
stroke="#00093C" stroke-width="2"
/>
</svg>
