
<svg xmlns="http://www.w3.org/2000/svg"
 width="5120.000000pt" height="5120.000000pt" viewBox="0 0 5120.000000 5120.000000"
 >

<g transform="translate(0.000000,5120.000000) scale(0.100000,-0.100000)"
fill="#fff" stroke="#000" stroke-width="5%">
<path d="M21416 45389 c-449 -47 -883 -261 -1203 -591 -272 -283 -444 -616
-526 -1022 l-22 -111 -3 -6062 -2 -6063 -6063 -2 -6062 -3 -111 -22 c-406 -82
-739 -254 -1022 -526 -309 -299 -501 -666 -579 -1107 -17 -101 -18 -264 -18
-4280 0 -4016 1 -4179 18 -4280 78 -441 270 -807 579 -1107 283 -272 616 -444
1022 -526 l111 -22 6062 -3 6063 -2 2 -6063 3 -6062 22 -111 c82 -406 254
-739 526 -1022 296 -306 637 -486 1097 -579 79 -16 358 -17 4210 -21 2904 -2
4159 0 4239 8 556 53 1061 339 1398 793 177 240 292 503 356 821 l22 111 3
6062 2 6063 6063 2 6062 3 111 22 c406 82 739 254 1022 526 309 300 501 666
579 1107 17 101 18 264 18 4280 0 4016 -1 4179 -18 4280 -78 441 -270 808
-579 1107 -283 272 -616 444 -1022 526 l-111 22 -6062 3 -6063 2 -2 6063 -3
6062 -22 111 c-64 318 -179 581 -356 821 -334 450 -833 735 -1387 793 -117 12
-8238 11 -8354 -1z m8349 -1212 c33 -9 103 -38 155 -64 79 -39 109 -61 186
-137 103 -103 151 -178 197 -311 l32 -90 5 -6375 5 -6375 23 -65 c36 -100 79
-169 151 -241 72 -72 141 -115 241 -151 l65 -23 6375 -5 6375 -5 70 -23 c141
-48 223 -98 326 -201 82 -82 103 -110 142 -191 26 -52 55 -124 64 -160 17 -61
18 -290 18 -4160 0 -3870 -1 -4099 -18 -4160 -9 -36 -38 -108 -64 -160 -39
-81 -60 -109 -142 -191 -103 -103 -185 -153 -326 -201 l-70 -23 -6370 -5
c-5119 -4 -6379 -8 -6415 -18 -203 -58 -374 -229 -432 -432 -10 -36 -14 -1296
-18 -6415 l-5 -6370 -32 -90 c-46 -133 -94 -208 -197 -311 -77 -76 -107 -98
-186 -138 -52 -25 -124 -54 -160 -63 -61 -17 -290 -18 -4160 -18 -3870 0
-4099 1 -4160 18 -36 9 -108 38 -160 64 -81 40 -109 60 -190 142 -103 103
-155 187 -202 326 l-23 70 -5 6375 -5 6375 -23 65 c-37 102 -80 169 -156 245
-73 72 -171 130 -266 157 -36 10 -1296 14 -6415 18 l-6370 5 -70 23 c-141 48
-223 98 -326 201 -82 82 -103 110 -142 191 -26 52 -55 124 -64 160 -17 61 -18
290 -18 4160 0 3870 1 4099 18 4160 9 36 38 108 64 160 39 81 60 109 142 191
103 103 185 153 326 201 l70 23 6375 5 6375 5 65 23 c100 36 169 79 241 151
72 72 115 141 151 241 l23 65 5 6375 5 6375 23 70 c47 139 99 223 202 325 95
96 172 146 282 186 122 44 -48 42 4253 41 3859 -2 4083 -3 4140 -20z"/>
</g>
</svg>
